HIERARCHY
ROOT Hips
{
    OFFSET   0.000000   0.000000   0.000000
    CHANNELS 6 Xposition Yposition Zposition Zrotation Xrotation Yrotation
    JOINT Chest
    {
        OFFSET   0.000000   8.007230   0.000000
        CHANNELS 3 Zrotation Xrotation Yrotation
        JOINT Chest2
        {
            OFFSET   0.000000  22.077100   0.000000
            CHANNELS 3 Zrotation Xrotation Yrotation
            JOINT Neck
            {
                OFFSET   0.000000  23.254700   0.000000
                CHANNELS 3 Zrotation Xrotation Yrotation
                JOINT Head
                {
                    OFFSET   0.000010  14.370000   1.956610
                    CHANNELS 3 Zrotation Xrotation Yrotation
                    End Site
                    {
                        OFFSET   0.000000  19.566000   0.000000
                    }
                }
            }
            JOINT LeftCollar
            {
                OFFSET   3.911900  19.017000  -0.467063
                CHANNELS 3 Zrotation Xrotation Yrotation
                JOINT LeftShoulder
                {
                    OFFSET  10.383700   0.000000   0.000000
                    CHANNELS 3 Zrotation Xrotation Yrotation
                    JOINT LeftElbow
                    {
                        OFFSET  26.662100   0.001671   0.000522
                        CHANNELS 3 Zrotation Xrotation Yrotation
                        JOINT LeftWrist
                        {
                            OFFSET  28.869000   0.000037  -0.000114
                            CHANNELS 3 Zrotation Xrotation Yrotation
                            JOINT LeftFinger0
                            {
                                OFFSET   2.044650  -2.323450   3.252850
                                CHANNELS 3 Zrotation Xrotation Yrotation
                                JOINT LeftFinger01
                                {
                                    OFFSET   3.088140   0.000000   0.000000
                                    CHANNELS 3 Zrotation Xrotation Yrotation
                                    JOINT LeftFinger02
                                    {
                                        OFFSET   2.639460   0.000000   0.000000
                                        CHANNELS 3 Zrotation Xrotation Yrotation
                                        End Site
                                        {
                                            OFFSET   2.582190   0.000000   0.000000
                                        }
                                    }
                                }
                            }
                            JOINT LeftFinger1
                            {
                                OFFSET   8.364480   0.000000   3.252850
                                CHANNELS 3 Zrotation Xrotation Yrotation
                                JOINT LeftFinger11
                                {
                                    OFFSET   4.646930   0.000000   0.000000
                                    CHANNELS 3 Zrotation Xrotation Yrotation
                                    JOINT LeftFinger12
                                    {
                                        OFFSET   2.323470   0.000000   0.000000
                                        CHANNELS 3 Zrotation Xrotation Yrotation
                                        End Site
                                        {
                                            OFFSET   2.273050   0.000000   0.000000
                                        }
                                    }
                                }
                            }
                            JOINT LeftFinger2
                            {
                                OFFSET   8.364490   0.000016   1.078090
                                CHANNELS 3 Zrotation Xrotation Yrotation
                                JOINT LeftFinger21
                                {
                                    OFFSET   5.111620   0.000000   0.000000
                                    CHANNELS 3 Zrotation Xrotation Yrotation
                                    JOINT LeftFinger22
                                    {
                                        OFFSET   2.788150   0.000013   0.000000
                                        CHANNELS 3 Zrotation Xrotation Yrotation
                                        End Site
                                        {
                                            OFFSET   2.727660   0.000000   0.000000
                                        }
                                    }
                                }
                            }
                            JOINT LeftFinger3
                            {
                                OFFSET   7.899780   0.000016  -1.078090
                                CHANNELS 3 Zrotation Xrotation Yrotation
                                JOINT LeftFinger31
                                {
                                    OFFSET   4.646930   0.000000   0.000000
                                    CHANNELS 3 Zrotation Xrotation Yrotation
                                    JOINT LeftFinger32
                                    {
                                        OFFSET   2.323470   0.000000   0.000000
                                        CHANNELS 3 Zrotation Xrotation Yrotation
                                        End Site
                                        {
                                            OFFSET   2.273050   0.000000   0.000000
                                        }
                                    }
                                }
                            }
                            JOINT LeftFinger4
                            {
                                OFFSET   7.435080   0.000000  -3.252850
                                CHANNELS 3 Zrotation Xrotation Yrotation
                                JOINT LeftFinger41
                                {
                                    OFFSET   3.717550   0.000000   0.000000
                                    CHANNELS 3 Zrotation Xrotation Yrotation
                                    JOINT LeftFinger42
                                    {
                                        OFFSET   1.858760   0.000000   0.000000
                                        CHANNELS 3 Zrotation Xrotation Yrotation
                                        End Site
                                        {
                                            OFFSET   1.818440   0.000000   0.000000
                                        }
                                    }
                                }
                            }
                        }
                    }
                }
            }
            JOINT RightCollar
            {
                OFFSET  -3.911900  19.017000  -0.467064
                CHANNELS 3 Zrotation Xrotation Yrotation
                JOINT RightShoulder
                {
                    OFFSET -10.383700   0.000000   0.000000
                    CHANNELS 3 Zrotation Xrotation Yrotation
                    JOINT RightElbow
                    {
                        OFFSET -26.662100   0.001633   0.000260
                        CHANNELS 3 Zrotation Xrotation Yrotation
                        JOINT RightWrist
                        {
                            OFFSET -28.869000  -0.000045  -0.000080
                            CHANNELS 3 Zrotation Xrotation Yrotation
                            JOINT RightFinger0
                            {
                                OFFSET  -2.044660  -2.323490   3.252850
                                CHANNELS 3 Zrotation Xrotation Yrotation
                                JOINT RightFinger01
                                {
                                    OFFSET  -3.088140   0.000000   0.000000
                                    CHANNELS 3 Zrotation Xrotation Yrotation
                                    JOINT RightFinger02
                                    {
                                        OFFSET  -2.639450   0.000000   0.000000
                                        CHANNELS 3 Zrotation Xrotation Yrotation
                                        End Site
                                        {
                                            OFFSET  -2.582190   0.000000   0.000000
                                        }
                                    }
                                }
                            }
                            JOINT RightFinger1
                            {
                                OFFSET  -8.364480   0.000000   3.252850
                                CHANNELS 3 Zrotation Xrotation Yrotation
                                JOINT RightFinger11
                                {
                                    OFFSET  -4.646920   0.000000   0.000000
                                    CHANNELS 3 Zrotation Xrotation Yrotation
                                    JOINT RightFinger12
                                    {
                                        OFFSET  -2.323470   0.000000   0.000000
                                        CHANNELS 3 Zrotation Xrotation Yrotation
                                        End Site
                                        {
                                            OFFSET  -2.273050   0.000000   0.000000
                                        }
                                    }
                                }
                            }
                            JOINT RightFinger2
                            {
                                OFFSET  -8.364480   0.000000   1.078090
                                CHANNELS 3 Zrotation Xrotation Yrotation
                                JOINT RightFinger21
                                {
                                    OFFSET  -5.111610   0.000000   0.000000
                                    CHANNELS 3 Zrotation Xrotation Yrotation
                                    JOINT RightFinger22
                                    {
                                        OFFSET  -2.788160   0.000000   0.000000
                                        CHANNELS 3 Zrotation Xrotation Yrotation
                                        End Site
                                        {
                                            OFFSET  -2.727660   0.000000   0.000000
                                        }
                                    }
                                }
                            }
                            JOINT RightFinger3
                            {
                                OFFSET  -7.899780   0.000000  -1.078090
                                CHANNELS 3 Zrotation Xrotation Yrotation
                                JOINT RightFinger31
                                {
                                    OFFSET  -4.646930   0.000000   0.000000
                                    CHANNELS 3 Zrotation Xrotation Yrotation
                                    JOINT RightFinger32
                                    {
                                        OFFSET  -2.323470   0.000000   0.000000
                                        CHANNELS 3 Zrotation Xrotation Yrotation
                                        End Site
                                        {
                                            OFFSET  -2.273050   0.000000   0.000000
                                        }
                                    }
                                }
                            }
                            JOINT RightFinger4
                            {
                                OFFSET  -7.435090   0.000000  -3.252850
                                CHANNELS 3 Zrotation Xrotation Yrotation
                                JOINT RightFinger41
                                {
                                    OFFSET  -3.717550   0.000000   0.000000
                                    CHANNELS 3 Zrotation Xrotation Yrotation
                                    JOINT RightFinger42
                                    {
                                        OFFSET  -1.858760   0.000000   0.000000
                                        CHANNELS 3 Zrotation Xrotation Yrotation
                                        End Site
                                        {
                                            OFFSET  -1.818440   0.000000   0.000000
                                        }
                                    }
                                }
                            }
                        }
                    }
                }
            }
        }
    }
    JOINT LeftHip
    {
        OFFSET   9.782990   0.000000   0.000000
        CHANNELS 3 Zrotation Xrotation Yrotation
        JOINT LeftKnee
        {
            OFFSET  -0.000063 -41.789100   0.001657
            CHANNELS 3 Zrotation Xrotation Yrotation
            JOINT LeftAnkle
            {
                OFFSET   0.000078 -41.133200  -0.000113
                CHANNELS 3 Zrotation Xrotation Yrotation
                JOINT LeftToe
                {
                    OFFSET   0.000000  -6.358970  14.674500
                    CHANNELS 3 Zrotation Xrotation Yrotation
                    End Site
                    {
                        OFFSET   0.000000   0.000000   3.913200
                    }
                }
            }
        }
    }
    JOINT RightHip
    {
        OFFSET  -9.782990   0.000000   0.000000
        CHANNELS 3 Zrotation Xrotation Yrotation
        JOINT RightKnee
        {
            OFFSET   0.000053 -41.789200   0.000277
            CHANNELS 3 Zrotation Xrotation Yrotation
            JOINT RightAnkle
            {
                OFFSET   0.000030 -41.133200  -0.000150
                CHANNELS 3 Zrotation Xrotation Yrotation
                JOINT RightToe
                {
                    OFFSET   0.000000  -6.358960  14.674500
                    CHANNELS 3 Zrotation Xrotation Yrotation
                    End Site
                    {
                        OFFSET   0.000000   0.000000   3.913200
                    }
                }
            }
        }
    }
}
MOTION
Frames: 4
Frame Time:   0.016667
 -1.175170  89.560500  -5.136940  -2.661440 -10.242000  -2.181200   0.863040   5.256910   0.677687   1.673930  10.523100   1.283560   0.314700  -0.192812  -0.005854   0.517381  -0.387561   2.570090  -5.088340  -1.076890  -0.473267 -75.153300  13.683600  -0.078043  -1.390470  -4.085340 -15.509600  12.598600  -4.681050   1.859840  37.418700  27.982300 -54.146200 -31.836100   0.000000   0.002190 -10.917300   0.001121   0.002130 -28.939400   6.289960 -11.220900 -24.183100  -0.005756  -0.009323 -16.928200  -0.004080  -0.004132 -28.776700   0.068600  -0.124863 -41.585800  -0.005466  -0.009582 -27.696100   0.002452  -0.000592 -28.456300   0.067875  -0.125255 -35.647400  -0.006515  -0.010190 -23.751000   0.003246  -0.005564 -33.527200   0.078680  -0.118761 -50.289100  -0.003621  -0.012460 -33.493900   0.007864  -0.001517  10.994600  -0.495690   8.012040  68.512400   5.474180  -9.640170  -2.061030  -6.111000  14.928400 -13.224900  -5.551500   2.417020 -37.756100  29.960900  61.142800  31.311100  -0.003438  -0.003394  10.655600  -0.001848   0.005212  32.785000  10.906500  16.371000  28.111500  -0.008439   0.004115  19.678000  -0.000601   0.004689  31.680700   0.703646   1.139980  47.530900   0.000433   0.001021  31.655600  -0.001286  -0.000490  31.695400   0.703426   1.139930  47.553000  -0.004102   0.003664  31.686900   0.000780   0.003533  45.613200  -2.886070  -2.821370  68.526400  -0.003518   0.001473  45.638600   0.002300   0.004975   2.308980  11.453700   4.323370   1.751010   0.004008   6.431010  -1.467840  -1.519780   4.101910   0.000000   0.000000  -0.000000   4.840020   8.065650  -0.292400  -2.315840   6.079380  -6.303970  -0.445785  -5.126030  -3.557400  -0.000000   0.000000   0.000000
 -1.184680  89.560500  -5.151930  -2.654570 -10.286900  -2.115830   0.853699   5.289470   0.677888   1.654860  10.588100   1.284260   0.326838  -0.192646  -0.005847   0.537299  -0.387160   2.555620  -5.081290  -1.093050  -0.495942 -75.134200  13.744200  -0.117463  -1.399800  -4.121980 -15.498500  12.596200  -4.691780   1.847070  37.413900  27.986400 -54.173600 -31.843800   0.000000   0.002189 -10.917200   0.001121   0.002117 -28.952400   6.289630 -11.210900 -24.193300  -0.005756  -0.009314 -16.935500  -0.004080  -0.004126 -28.776800   0.060166  -0.109504 -41.597600  -0.005457  -0.009579 -27.703900   0.002453  -0.000565 -28.456200   0.059531  -0.109848 -35.652800  -0.006505  -0.010185 -23.751000   0.003245  -0.005553 -33.527300   0.069009  -0.104153 -50.289000  -0.003627  -0.012459 -33.493900   0.007856  -0.001493  11.032700  -0.527305   8.028570  68.548600   5.443370  -9.705970  -2.005130  -6.276470  15.048100 -13.403700  -5.499250   2.503660 -37.846100  30.022200  61.164900  31.227300  -0.003454  -0.003417  10.613700  -0.001857   0.005201  32.840000  10.912500  16.347300  28.155200  -0.008393   0.004064  19.708400  -0.000593   0.004613  31.652600   0.718642   1.165710  47.488600   0.000490   0.000977  31.627400  -0.001290  -0.000545  31.699300   0.718603   1.165390  47.558500  -0.004068   0.003616  31.687200   0.000779   0.003493  45.624800  -2.890290  -2.824210  68.544100  -0.003568   0.001473  45.650400   0.002258   0.004942   2.314770  11.455700   4.309960   1.755680   0.051722   6.406050  -1.470780  -1.519690   4.071880   0.000000   0.000000   0.000000   4.854520   8.087670  -0.292443  -2.326710   6.126600  -6.333790  -0.408493  -5.184470  -3.556570  -0.000000   0.000000   0.000000
 -1.199100  89.560500  -5.176970  -2.645510 -10.361900  -2.014640   0.837608   5.348510   0.679110   1.621850  10.706100   1.287700   0.348938  -0.192480  -0.005824   0.573530  -0.386766   2.517250  -5.067270  -1.131460  -0.542442 -75.101000  13.850000  -0.185560  -1.415410  -4.183820 -15.479000  12.590000  -4.702520   1.828730  37.406800  27.989600 -54.215800 -31.851500   0.000000   0.002184 -10.917000   0.001120   0.002088 -28.970100   6.289300 -11.200800 -24.207500  -0.005756  -0.009294 -16.945300  -0.004078  -0.004110 -28.776800   0.051731  -0.094146 -41.613700  -0.005432  -0.009570 -27.714700   0.002455  -0.000501 -28.456200   0.051187  -0.094442 -35.662200  -0.006475  -0.010172 -23.751000   0.003244  -0.005525 -33.527300   0.059338  -0.089544 -50.289000  -0.003643  -0.012453 -33.493900   0.007836  -0.001436  11.092400  -0.590720   8.045150  68.628900   5.342100  -9.850630  -1.888720  -6.594140  15.415300 -13.728400  -5.387410   2.687340 -38.064400  30.138300  61.198900  30.960600  -0.003493  -0.003467  10.480300  -0.001885   0.005171  32.958300  10.925200  16.296100  28.249500  -0.008321   0.003977  19.774700  -0.000571   0.004486  31.583800   0.785958   1.279450  47.386200   0.000548   0.000905  31.559200  -0.001297  -0.000601  31.703700   0.787214   1.278000  47.566000  -0.004011   0.003537  31.687600   0.000779   0.003427  45.662400  -2.904180  -2.833570  68.601700  -0.003673   0.001473  45.688800   0.002187   0.004888   2.325550  11.468000   4.289960   1.761400   0.104376   6.368240  -1.474340  -1.518740   4.023260  -0.000000   0.000000  -0.000000   4.876900   8.123850  -0.292656  -2.343540   6.207540  -6.372610  -0.340198  -5.286540  -3.550580  -0.000000   0.000000   0.000000
 -1.207830  89.560600  -5.196850  -2.641920 -10.419800  -1.946230   0.823110   5.403930   0.684088   1.591680  10.816800   1.298850   0.369747  -0.192518  -0.005781   0.607616  -0.387314   2.460110  -5.050980  -1.188830  -0.599787 -75.072000  13.946700  -0.243439  -1.426670  -4.231560 -15.456500  12.578600  -4.691270   1.821580  37.402400  27.981600 -54.242400 -31.846400   0.000000   0.002175 -10.916900   0.001116   0.002048 -28.975200   6.293790 -11.203800 -24.212400  -0.005757  -0.009264 -16.948000  -0.004075  -0.004084 -28.776800   0.055583  -0.101164 -41.618200  -0.005392  -0.009559 -27.717900   0.002452  -0.000407 -28.456200   0.055000  -0.101481 -35.670200  -0.006425  -0.010150 -23.755000   0.003243  -0.005484 -33.527300   0.063753  -0.096223 -50.289100  -0.003666  -0.012443 -33.493900   0.007805  -0.001350  11.137300  -0.664914   8.024860  68.736200   5.177100 -10.035100  -1.868340  -6.982250  16.024400 -14.041000  -5.201660   2.902140 -38.424300  30.242600  61.212100  30.449300  -0.003554  -0.003533  10.224700  -0.001936   0.005118  33.031500  10.933600  16.264200  28.308000  -0.008258   0.003890  19.818900  -0.000535   0.004358  31.458000   0.944787   1.546800  47.204500   0.000533   0.000837  31.438200  -0.001304  -0.000587  31.698500   0.948942   1.543350  47.567300  -0.003950   0.003456  31.684100   0.000782   0.003359  45.698200  -2.918040  -2.843090  68.657200  -0.003817   0.002405  45.725700   0.002116   0.004835   2.334910  11.495100   4.279980   1.762600   0.110136   6.343530  -1.476420  -1.504270   3.984440  -0.000000   0.000000   0.000000   4.889470   8.151410  -0.298231  -2.353240   6.274860  -6.383440  -0.269992  -5.382180  -3.537230  -0.000000   0.000000   0.000000
